<?xml version="1.0" encoding="UTF-8" standalone="no"?>
<!DOCTYPE svg PUBLIC "-//W3C//DTD SVG 1.1//EN"
 "http://www.w3.org/Graphics/SVG/1.1/DTD/svg11.dtd">
<!-- Generated by graphviz version 14.0.0 (20250921.2048)
 -->
<!-- Title: G Pages: 1 -->
<svg width="839pt" height="441pt"
 viewBox="0.00 0.00 839.00 441.00" xmlns="http://www.w3.org/2000/svg" xmlns:xlink="http://www.w3.org/1999/xlink">
<g id="graph0" class="graph" transform="scale(1 1) rotate(0) translate(4 437)">
<title>G</title><style>.edge>path:hover{stroke-width:8}</style>
<polygon fill="white" stroke="none" points="-4,4 -4,-437 835.07,-437 835.07,4 -4,4"/>
<!-- argparse -->
<g id="node1" class="node">
<title>argparse</title><style>.edge>path:hover{stroke-width:8}</style>
<polygon fill="#ac4949" stroke="black" points="91.07,-289 88.07,-293 67.07,-293 64.07,-289 37.07,-289 37.07,-253 91.07,-253 91.07,-289"/>
<text xml:space="preserve" text-anchor="middle" x="64.07" y="-267.5" font-family="Helvetica,sans-Serif" font-size="10.00" fill="#ffffff">argparse</text>
</g>
<!-- src -->
<g id="node13" class="node">
<title>src</title><style>.edge>path:hover{stroke-width:8}</style>
<polygon fill="#3535a1" stroke="black" points="433.07,-36 430.07,-40 409.07,-40 406.07,-36 379.07,-36 379.07,0 433.07,0 433.07,-36"/>
<text xml:space="preserve" text-anchor="middle" x="406.07" y="-14.5" font-family="Helvetica,sans-Serif" font-size="10.00" fill="#ffffff">src</text>
</g>
<!-- argparse&#45;&gt;src -->
<g id="edge1" class="edge">
<title>argparse&#45;&gt;src</title><style>.edge>path:hover{stroke-width:8}</style>
<path fill="none" stroke="black" d="M91.45,-258.57C138.05,-239.09 227.9,-201.42 229.07,-200"/>
</g>
<!-- contextlib -->
<g id="node2" class="node">
<title>contextlib</title><style>.edge>path:hover{stroke-width:8}</style>
<polygon fill="blue" stroke="black" points="374.07,-361 371.07,-365 350.07,-365 347.07,-361 316.07,-361 316.07,-325 374.07,-325 374.07,-361"/>
<text xml:space="preserve" text-anchor="middle" x="345.07" y="-339.5" font-family="Helvetica,sans-Serif" font-size="10.00" fill="white">contextlib</text>
</g>
<!-- contextlib&#45;&gt;src -->
<g id="edge2" class="edge">
<title>contextlib&#45;&gt;src</title><style>.edge>path:hover{stroke-width:8}</style>
<path fill="none" stroke="black" d="M347.01,-324.52C348.22,-305.19 347.26,-274 332.07,-253 301.91,-211.28 196.33,-239.73 229.07,-200"/>
</g>
<!-- subprocess -->
<g id="node14" class="node">
<title>subprocess</title><style>.edge>path:hover{stroke-width:8}</style>
<polygon fill="blue" stroke="black" points="323.2,-289 320.2,-293 299.2,-293 296.2,-289 256.95,-289 256.95,-253 323.2,-253 323.2,-289"/>
<text xml:space="preserve" text-anchor="middle" x="290.07" y="-267.5" font-family="Helvetica,sans-Serif" font-size="10.00" fill="white">subprocess</text>
</g>
<!-- contextlib&#45;&gt;subprocess -->
<g id="edge3" class="edge">
<title>contextlib&#45;&gt;subprocess</title><style>.edge>path:hover{stroke-width:8}</style>
<path fill="none" stroke="black" d="M331.48,-324.7C325.15,-316.64 317.49,-306.89 310.49,-297.98"/>
<polygon fill="blue" stroke="black" points="313.38,-296 304.45,-290.29 307.87,-300.32 313.38,-296"/>
</g>
<!-- typing -->
<g id="node18" class="node">
<title>typing</title><style>.edge>path:hover{stroke-width:8}</style>
<polygon fill="#ef0653" stroke="black" points="433.07,-289 430.07,-293 409.07,-293 406.07,-289 379.07,-289 379.07,-253 433.07,-253 433.07,-289"/>
<text xml:space="preserve" text-anchor="middle" x="406.07" y="-267.5" font-family="Helvetica,sans-Serif" font-size="10.00" fill="#ffffff">typing</text>
</g>
<!-- contextlib&#45;&gt;typing -->
<g id="edge4" class="edge">
<title>contextlib&#45;&gt;typing</title><style>.edge>path:hover{stroke-width:8}</style>
<path fill="none" stroke="black" d="M360.15,-324.7C367.24,-316.56 375.84,-306.69 383.68,-297.7"/>
<polygon fill="blue" stroke="black" points="386.24,-300.08 390.17,-290.25 380.97,-295.49 386.24,-300.08"/>
</g>
<!-- datetime -->
<g id="node3" class="node">
<title>datetime</title><style>.edge>path:hover{stroke-width:8}</style>
<polygon fill="#b69553" stroke="black" points="543.07,-217 540.07,-221 519.07,-221 516.07,-217 489.07,-217 489.07,-181 543.07,-181 543.07,-217"/>
<text xml:space="preserve" text-anchor="middle" x="516.07" y="-195.5" font-family="Helvetica,sans-Serif" font-size="10.00" fill="#000000">datetime</text>
</g>
<!-- datetime&#45;&gt;src -->
<g id="edge5" class="edge">
<title>datetime&#45;&gt;src</title><style>.edge>path:hover{stroke-width:8}</style>
<path fill="none" stroke="black" d="M522.43,-180.63C527.15,-164.33 530.54,-140.63 516.07,-128"/>
</g>
<!-- decimal -->
<g id="node4" class="node">
<title>decimal</title><style>.edge>path:hover{stroke-width:8}</style>
<polygon fill="#b6b653" stroke="black" points="615.07,-217 612.07,-221 591.07,-221 588.07,-217 561.07,-217 561.07,-181 615.07,-181 615.07,-217"/>
<text xml:space="preserve" text-anchor="middle" x="588.07" y="-195.5" font-family="Helvetica,sans-Serif" font-size="10.00" fill="#000000">decimal</text>
</g>
<!-- decimal&#45;&gt;src -->
<g id="edge6" class="edge">
<title>decimal&#45;&gt;src</title><style>.edge>path:hover{stroke-width:8}</style>
<path fill="none" stroke="black" d="M571.39,-180.78C557.1,-166.28 535.77,-145.2 516.07,-128"/>
</g>
<!-- dotenv -->
<g id="node5" class="node">
<title>dotenv</title><style>.edge>path:hover{stroke-width:8}</style>
<polygon fill="#95c040" stroke="black" points="433.07,-217 430.07,-221 409.07,-221 406.07,-217 379.07,-217 379.07,-181 433.07,-181 433.07,-217"/>
<text xml:space="preserve" text-anchor="middle" x="406.07" y="-195.5" font-family="Helvetica,sans-Serif" font-size="10.00" fill="#000000">dotenv</text>
</g>
<!-- dotenv&#45;&gt;src -->
<g id="edge7" class="edge">
<title>dotenv&#45;&gt;src</title><style>.edge>path:hover{stroke-width:8}</style>
<path fill="none" stroke="black" d="M433.46,-186.7C470.8,-170.56 531.42,-141.4 516.07,-128"/>
</g>
<!-- flask -->
<g id="node6" class="node">
<title>flask</title><style>.edge>path:hover{stroke-width:8}</style>
<polygon fill="#62c431" stroke="black" points="323.07,-217 320.07,-221 299.07,-221 296.07,-217 269.07,-217 269.07,-181 323.07,-181 323.07,-217"/>
<text xml:space="preserve" text-anchor="middle" x="296.07" y="-195.5" font-family="Helvetica,sans-Serif" font-size="10.00" fill="#000000">flask</text>
</g>
<!-- flask&#45;&gt;src -->
<g id="edge8" class="edge">
<title>flask&#45;&gt;src</title><style>.edge>path:hover{stroke-width:8}</style>
<path fill="none" stroke="black" d="M290.01,-180.51C285.73,-164.59 282.83,-141.57 296.07,-128"/>
</g>
<!-- hashlib -->
<g id="node7" class="node">
<title>hashlib</title><style>.edge>path:hover{stroke-width:8}</style>
<polygon fill="#53b653" stroke="black" points="687.07,-217 684.07,-221 663.07,-221 660.07,-217 633.07,-217 633.07,-181 687.07,-181 687.07,-217"/>
<text xml:space="preserve" text-anchor="middle" x="660.07" y="-195.5" font-family="Helvetica,sans-Serif" font-size="10.00" fill="#000000">hashlib</text>
</g>
<!-- hashlib&#45;&gt;src -->
<g id="edge9" class="edge">
<title>hashlib&#45;&gt;src</title><style>.edge>path:hover{stroke-width:8}</style>
<path fill="none" stroke="black" d="M632.88,-185C591.82,-165.34 518.48,-130.1 516.07,-128"/>
</g>
<!-- json -->
<g id="node8" class="node">
<title>json</title><style>.edge>path:hover{stroke-width:8}</style>
<polygon fill="#2fdb68" stroke="black" points="759.07,-217 756.07,-221 735.07,-221 732.07,-217 705.07,-217 705.07,-181 759.07,-181 759.07,-217"/>
<text xml:space="preserve" text-anchor="middle" x="732.07" y="-195.5" font-family="Helvetica,sans-Serif" font-size="10.00" fill="#000000">json</text>
</g>
<!-- json&#45;&gt;src -->
<g id="edge10" class="edge">
<title>json&#45;&gt;src</title><style>.edge>path:hover{stroke-width:8}</style>
<path fill="none" stroke="black" d="M704.75,-184.56C701.84,-183.29 698.92,-182.08 696.07,-181 618.13,-151.33 578.89,-182.85 516.07,-128"/>
</g>
<!-- os -->
<g id="node9" class="node">
<title>os</title><style>.edge>path:hover{stroke-width:8}</style>
<polygon fill="blue" stroke="black" points="223.07,-433 220.07,-437 199.07,-437 196.07,-433 169.07,-433 169.07,-397 223.07,-397 223.07,-433"/>
<text xml:space="preserve" text-anchor="middle" x="196.07" y="-411.5" font-family="Helvetica,sans-Serif" font-size="10.00" fill="white">os</text>
</g>
<!-- os&#45;&gt;argparse -->
<g id="edge11" class="edge">
<title>os&#45;&gt;argparse</title><style>.edge>path:hover{stroke-width:8}</style>
<path fill="none" stroke="black" d="M9.07,-342C1.45,-324.89 13.37,-308.29 28.05,-295.55"/>
<polygon fill="blue" stroke="black" points="30.05,-298.43 35.69,-289.47 25.69,-292.96 30.05,-298.43"/>
</g>
<!-- os&#45;&gt;contextlib -->
<g id="edge12" class="edge">
<title>os&#45;&gt;contextlib</title><style>.edge>path:hover{stroke-width:8}</style>
<path fill="none" stroke="black" d="M223.4,-401.16C246.37,-390.37 279.49,-374.81 305.38,-362.65"/>
<polygon fill="blue" stroke="black" points="306.69,-365.9 314.25,-358.48 303.71,-359.56 306.69,-365.9"/>
</g>
<!-- shutil -->
<g id="node12" class="node">
<title>shutil</title><style>.edge>path:hover{stroke-width:8}</style>
<polygon fill="#3366cc" stroke="black" points="147.07,-361 144.07,-365 123.07,-365 120.07,-361 93.07,-361 93.07,-325 147.07,-325 147.07,-361"/>
<text xml:space="preserve" text-anchor="middle" x="120.07" y="-339.5" font-family="Helvetica,sans-Serif" font-size="10.00" fill="#ffffff">shutil</text>
</g>
<!-- os&#45;&gt;shutil -->
<g id="edge13" class="edge">
<title>os&#45;&gt;shutil</title><style>.edge>path:hover{stroke-width:8}</style>
<path fill="none" stroke="black" d="M177.29,-396.7C168.24,-388.37 157.23,-378.22 147.29,-369.07"/>
<polygon fill="blue" stroke="black" points="149.75,-366.57 140.02,-362.37 145,-371.72 149.75,-366.57"/>
</g>
<!-- os&#45;&gt;src -->
<g id="edge14" class="edge">
<title>os&#45;&gt;src</title><style>.edge>path:hover{stroke-width:8}</style>
<path fill="none" stroke="black" d="M296.07,-126C333.97,-87.16 406.07,-127.27 406.07,-73"/>
<path fill="none" stroke="black" d="M168.75,-414.4C123.55,-413.32 35.53,-403.37 9.07,-344"/>
<path fill="none" stroke="black" d="M229.07,-198C256.81,-165.05 266,-158.82 296.07,-128"/>
<path fill="none" stroke="black" d="M406.07,-72C406.07,-64.06 406.07,-55.44 406.07,-47.52"/>
<polygon fill="blue" stroke="black" points="409.57,-47.7 406.07,-37.7 402.57,-47.7 409.57,-47.7"/>
<path fill="none" stroke="black" d="M9.07,-342C-7.39,-305.06 0.16,-282.27 28.07,-253 91.83,-186.14 169.57,-270.68 229.07,-200"/>
</g>
<!-- os&#45;&gt;subprocess -->
<g id="edge15" class="edge">
<title>os&#45;&gt;subprocess</title><style>.edge>path:hover{stroke-width:8}</style>
<path fill="none" stroke="black" d="M288.07,-342C292.11,-328.88 292.97,-313.71 292.68,-300.86"/>
<polygon fill="blue" stroke="black" points="296.17,-300.71 292.18,-290.9 289.18,-301.06 296.17,-300.71"/>
<path fill="none" stroke="black" d="M223.47,-403.8C247.14,-393.12 278.94,-373.74 288.07,-344"/>
</g>
<!-- tempfile -->
<g id="node15" class="node">
<title>tempfile</title><style>.edge>path:hover{stroke-width:8}</style>
<polygon fill="#8546a4" stroke="black" points="201.07,-289 198.07,-293 177.07,-293 174.07,-289 147.07,-289 147.07,-253 201.07,-253 201.07,-289"/>
<text xml:space="preserve" text-anchor="middle" x="174.07" y="-267.5" font-family="Helvetica,sans-Serif" font-size="10.00" fill="#ffffff">tempfile</text>
</g>
<!-- os&#45;&gt;tempfile -->
<g id="edge16" class="edge">
<title>os&#45;&gt;tempfile</title><style>.edge>path:hover{stroke-width:8}</style>
<path fill="none" stroke="black" d="M192.22,-396.68C188.76,-382.3 183.14,-361.45 176.07,-344"/>
<path fill="none" stroke="black" d="M176.07,-342C170.83,-329.06 169.89,-313.64 170.45,-300.57"/>
<polygon fill="blue" stroke="black" points="173.91,-301.12 171.18,-290.88 166.93,-300.59 173.91,-301.12"/>
</g>
<!-- threading -->
<g id="node16" class="node">
<title>threading</title><style>.edge>path:hover{stroke-width:8}</style>
<polygon fill="blue" stroke="black" points="259.95,-361 256.95,-365 235.95,-365 232.95,-361 204.2,-361 204.2,-325 259.95,-325 259.95,-361"/>
<text xml:space="preserve" text-anchor="middle" x="232.07" y="-339.5" font-family="Helvetica,sans-Serif" font-size="10.00" fill="white">threading</text>
</g>
<!-- os&#45;&gt;threading -->
<g id="edge17" class="edge">
<title>os&#45;&gt;threading</title><style>.edge>path:hover{stroke-width:8}</style>
<path fill="none" stroke="black" d="M204.97,-396.7C208.94,-388.98 213.71,-379.71 218.13,-371.11"/>
<polygon fill="blue" stroke="black" points="221.12,-372.94 222.58,-362.45 214.9,-369.74 221.12,-372.94"/>
</g>
<!-- pathlib -->
<g id="node10" class="node">
<title>pathlib</title><style>.edge>path:hover{stroke-width:8}</style>
<polygon fill="#10f9f9" stroke="black" points="831.07,-217 828.07,-221 807.07,-221 804.07,-217 777.07,-217 777.07,-181 831.07,-181 831.07,-217"/>
<text xml:space="preserve" text-anchor="middle" x="804.07" y="-195.5" font-family="Helvetica,sans-Serif" font-size="10.00" fill="#000000">pathlib</text>
</g>
<!-- pathlib&#45;&gt;src -->
<g id="edge18" class="edge">
<title>pathlib&#45;&gt;src</title><style>.edge>path:hover{stroke-width:8}</style>
<path fill="none" stroke="black" d="M776.83,-184.33C773.91,-183.11 770.96,-181.97 768.07,-181 659.59,-144.54 602.28,-203.28 516.07,-128"/>
</g>
<!-- psycopg -->
<g id="node11" class="node">
<title>psycopg</title><style>.edge>path:hover{stroke-width:8}</style>
<polygon fill="#269dd9" stroke="black" points="433.07,-145 430.07,-149 409.07,-149 406.07,-145 379.07,-145 379.07,-109 433.07,-109 433.07,-145"/>
<text xml:space="preserve" text-anchor="middle" x="406.07" y="-123.5" font-family="Helvetica,sans-Serif" font-size="10.00" fill="#000000">psycopg</text>
</g>
<!-- psycopg&#45;&gt;src -->
<g id="edge19" class="edge">
<title>psycopg&#45;&gt;src</title><style>.edge>path:hover{stroke-width:8}</style>
<path fill="none" stroke="black" d="M406.07,-108.81C406.07,-98.44 406.07,-84.96 406.07,-73"/>
</g>
<!-- shutil&#45;&gt;argparse -->
<g id="edge20" class="edge">
<title>shutil&#45;&gt;argparse</title><style>.edge>path:hover{stroke-width:8}</style>
<path fill="none" stroke="black" d="M106.23,-324.7C99.79,-316.64 91.99,-306.89 84.86,-297.98"/>
<polygon fill="#3366cc" stroke="black" points="87.68,-295.91 78.7,-290.29 82.22,-300.28 87.68,-295.91"/>
</g>
<!-- shutil&#45;&gt;src -->
<g id="edge21" class="edge">
<title>shutil&#45;&gt;src</title><style>.edge>path:hover{stroke-width:8}</style>
<path fill="none" stroke="black" d="M119.53,-324.62C119.79,-305.38 122.84,-274.28 138.07,-253 165.32,-214.95 198.67,-235.58 229.07,-200"/>
</g>
<!-- shutil&#45;&gt;tempfile -->
<g id="edge22" class="edge">
<title>shutil&#45;&gt;tempfile</title><style>.edge>path:hover{stroke-width:8}</style>
<path fill="none" stroke="black" d="M133.42,-324.7C139.63,-316.64 147.15,-306.89 154.03,-297.98"/>
<polygon fill="#3366cc" stroke="black" points="156.62,-300.36 159.95,-290.3 151.07,-296.08 156.62,-300.36"/>
</g>
<!-- subprocess&#45;&gt;src -->
<g id="edge23" class="edge">
<title>subprocess&#45;&gt;src</title><style>.edge>path:hover{stroke-width:8}</style>
<path fill="none" stroke="black" d="M258.12,-252.68C236.35,-238.65 214,-218.28 229.07,-200"/>
</g>
<!-- tempfile&#45;&gt;src -->
<g id="edge24" class="edge">
<title>tempfile&#45;&gt;src</title><style>.edge>path:hover{stroke-width:8}</style>
<path fill="none" stroke="black" d="M187.41,-252.56C198.41,-238.29 214.52,-217.65 229.07,-200"/>
</g>
<!-- threading&#45;&gt;src -->
<g id="edge25" class="edge">
<title>threading&#45;&gt;src</title><style>.edge>path:hover{stroke-width:8}</style>
<path fill="none" stroke="black" d="M225.25,-324.79C214.88,-295.46 199.31,-235.54 229.07,-200"/>
</g>
<!-- threading&#45;&gt;subprocess -->
<g id="edge26" class="edge">
<title>threading&#45;&gt;subprocess</title><style>.edge>path:hover{stroke-width:8}</style>
<path fill="none" stroke="black" d="M246.41,-324.7C253.15,-316.56 261.33,-306.69 268.78,-297.7"/>
<polygon fill="blue" stroke="black" points="271.25,-300.2 274.94,-290.27 265.86,-295.74 271.25,-300.2"/>
</g>
<!-- types -->
<g id="node17" class="node">
<title>types</title><style>.edge>path:hover{stroke-width:8}</style>
<polygon fill="#e722a5" stroke="black" points="315.07,-433 312.07,-437 291.07,-437 288.07,-433 261.07,-433 261.07,-397 315.07,-397 315.07,-433"/>
<text xml:space="preserve" text-anchor="middle" x="288.07" y="-411.5" font-family="Helvetica,sans-Serif" font-size="10.00" fill="#ffffff">types</text>
</g>
<!-- types&#45;&gt;contextlib -->
<g id="edge27" class="edge">
<title>types&#45;&gt;contextlib</title><style>.edge>path:hover{stroke-width:8}</style>
<path fill="none" stroke="black" d="M302.16,-396.7C308.72,-388.64 316.66,-378.89 323.92,-369.98"/>
<polygon fill="#e722a5" stroke="black" points="326.59,-372.24 330.19,-362.28 321.16,-367.82 326.59,-372.24"/>
</g>
<!-- types&#45;&gt;src -->
<g id="edge28" class="edge">
<title>types&#45;&gt;src</title><style>.edge>path:hover{stroke-width:8}</style>
<path fill="none" stroke="black" d="M461.07,-342C489.52,-275.8 454.89,-248.51 480.07,-181 490.03,-154.32 537.52,-146.73 516.07,-128"/>
</g>
<!-- types&#45;&gt;subprocess -->
<g id="edge29" class="edge">
<title>types&#45;&gt;subprocess</title><style>.edge>path:hover{stroke-width:8}</style>
<path fill="none" stroke="black" d="M285.29,-396.61C283.63,-382.18 282.75,-361.31 288.07,-344"/>
</g>
<!-- types&#45;&gt;tempfile -->
<g id="edge30" class="edge">
<title>types&#45;&gt;tempfile</title><style>.edge>path:hover{stroke-width:8}</style>
<path fill="none" stroke="black" d="M260.8,-406.96C232.44,-397.89 190.23,-378.96 176.07,-344"/>
</g>
<!-- types&#45;&gt;typing -->
<g id="edge31" class="edge">
<title>types&#45;&gt;typing</title><style>.edge>path:hover{stroke-width:8}</style>
<path fill="none" stroke="black" d="M461.07,-342C468.42,-324.91 456.69,-308.41 442.21,-295.73"/>
<polygon fill="#e722a5" stroke="black" points="444.66,-293.21 434.67,-289.68 440.28,-298.67 444.66,-293.21"/>
<path fill="none" stroke="black" d="M315.5,-413.52C358.03,-411.04 437.48,-398.92 461.07,-344"/>
</g>
<!-- typing&#45;&gt;dotenv -->
<g id="edge32" class="edge">
<title>typing&#45;&gt;dotenv</title><style>.edge>path:hover{stroke-width:8}</style>
<path fill="none" stroke="black" d="M406.07,-252.7C406.07,-245.41 406.07,-236.73 406.07,-228.54"/>
<polygon fill="#ef0653" stroke="black" points="409.57,-228.62 406.07,-218.62 402.57,-228.62 409.57,-228.62"/>
</g>
<!-- typing&#45;&gt;flask -->
<g id="edge33" class="edge">
<title>typing&#45;&gt;flask</title><style>.edge>path:hover{stroke-width:8}</style>
<path fill="none" stroke="black" d="M378.6,-252.52C364.71,-243.68 347.67,-232.84 332.69,-223.3"/>
<polygon fill="#ef0653" stroke="black" points="334.79,-220.49 324.47,-218.07 331.03,-226.39 334.79,-220.49"/>
</g>
<!-- typing&#45;&gt;psycopg -->
<g id="edge34" class="edge">
<title>typing&#45;&gt;psycopg</title><style>.edge>path:hover{stroke-width:8}</style>
<path fill="none" stroke="black" d="M351.07,-198C354.02,-180.8 365.07,-165.15 376.5,-153.03"/>
<polygon fill="#ef0653" stroke="black" points="378.66,-155.82 383.3,-146.3 373.73,-150.84 378.66,-155.82"/>
<path fill="none" stroke="black" d="M379.84,-252.77C363.98,-239.99 347.45,-221.18 351.07,-200"/>
</g>
<!-- typing&#45;&gt;src -->
<g id="edge35" class="edge">
<title>typing&#45;&gt;src</title><style>.edge>path:hover{stroke-width:8}</style>
<path fill="none" stroke="black" d="M351.07,-198C364.51,-119.48 576.08,-180.4 516.07,-128"/>
<path fill="none" stroke="black" d="M516.07,-126C475.2,-90.31 406.07,-127.27 406.07,-73"/>
</g>
</g>
</svg>
